<?xml version="1.0" encoding="UTF-8"?>
<svg id="Capa_2" data-name="Capa 2" xmlns="http://www.w3.org/2000/svg" viewBox="0 0 403.09 73.64">
  <defs>
    <style>
      .cls-1 {
        fill: #16161d;
      }

      .cls-1, .cls-2 {
        stroke-width: 0px;
      }

      .cls-2 {
        fill: #f08218;
      }
    </style>
  </defs>
  <g id="Capa_1-2" data-name="Capa 1">
    <g>
      <g>
        <path class="cls-1" d="M92.65,14.53c.99,0,1.86-.14,2.59-.41.73-.28,1.25-.54,1.56-.8l.91,1.78c-.36.32-1,.65-1.9.98s-1.98.5-3.24.5c-1.18,0-2.27-.21-3.28-.63-1.01-.42-1.89-1.01-2.65-1.76-.76-.75-1.35-1.63-1.77-2.63-.42-1-.64-2.09-.64-3.25s.21-2.25.63-3.26c.42-1.01,1.01-1.89,1.76-2.65.76-.76,1.64-1.35,2.65-1.77,1.01-.42,2.11-.64,3.29-.64,1.26,0,2.34.17,3.24.5s1.53.66,1.9.98l-.91,1.78c-.31-.27-.83-.54-1.56-.81-.73-.27-1.59-.41-2.59-.41-.91,0-1.73.15-2.48.46-.75.31-1.4.74-1.96,1.3-.55.56-.98,1.22-1.28,1.98-.3.76-.45,1.59-.45,2.48s.15,1.74.45,2.5.73,1.43,1.28,1.99c.55.56,1.21,1,1.96,1.3.75.31,1.58.46,2.48.46Z"/>
        <path class="cls-1" d="M108.13,16.29v-1.94c-.06.2-.25.48-.56.84-.31.36-.74.68-1.27.96-.54.29-1.17.43-1.9.43-.92,0-1.76-.22-2.5-.65-.75-.44-1.34-1.05-1.78-1.84-.44-.79-.66-1.71-.66-2.77s.22-1.98.66-2.77c.44-.79,1.03-1.4,1.78-1.84.75-.44,1.58-.66,2.5-.66.72,0,1.34.13,1.87.39.53.26.95.56,1.27.9.32.34.51.63.56.87v-1.87h2.08v9.95h-2.06ZM101.54,11.32c0,.72.16,1.34.47,1.87.32.53.72.93,1.23,1.22.5.29,1.04.43,1.62.43.61,0,1.16-.15,1.65-.44.48-.29.87-.7,1.15-1.23.28-.53.42-1.15.42-1.85s-.14-1.32-.42-1.85c-.28-.53-.67-.94-1.15-1.24-.49-.29-1.03-.44-1.65-.44-.57,0-1.11.15-1.62.44-.51.29-.91.7-1.23,1.22-.32.52-.47,1.15-.47,1.87Z"/>
        <path class="cls-1" d="M118.58,6.05c.65,0,1.29.14,1.91.41.62.28,1.13.71,1.53,1.3.4.59.6,1.37.6,2.32v6.21h-2.13v-5.79c0-.99-.23-1.7-.69-2.15-.46-.45-1.05-.67-1.78-.67-.48,0-.94.14-1.38.41-.44.27-.8.64-1.08,1.11-.28.47-.42,1.01-.42,1.61v5.49h-2.11V6.34h2.11v1.77c.07-.27.27-.57.59-.9.32-.32.73-.6,1.24-.82.5-.23,1.04-.34,1.62-.34Z"/>
        <path class="cls-1" d="M130.07,14.84c.63,0,1.14-.1,1.53-.3s.63-.35.73-.44l1.03,1.52c-.08.07-.27.19-.58.35-.3.16-.69.3-1.16.43-.47.13-1.01.19-1.61.19-.91,0-1.76-.2-2.54-.61-.78-.41-1.42-1-1.9-1.79-.48-.78-.72-1.74-.72-2.87s.24-2.1.72-2.88c.48-.78,1.11-1.37,1.9-1.78.78-.4,1.63-.61,2.54-.61.59,0,1.12.07,1.58.21.46.14.84.3,1.14.47s.5.3.59.39l-1.04,1.52c-.06-.06-.19-.16-.37-.3-.18-.13-.43-.26-.73-.37-.31-.11-.68-.17-1.1-.17-.52,0-1.02.14-1.51.42-.49.28-.89.68-1.21,1.21-.31.53-.47,1.16-.47,1.89s.16,1.37.47,1.9c.32.53.72.93,1.21,1.21.49.28.99.42,1.51.42Z"/>
        <path class="cls-1" d="M137.41,11.36c0,1.04.22,1.87.67,2.49s1.14.93,2.07.93,1.63-.31,2.07-.93.67-1.45.67-2.49v-5.02h2.08v5.31c0,.97-.19,1.83-.56,2.57s-.92,1.32-1.64,1.74-1.59.62-2.62.62-1.9-.21-2.61-.62c-.72-.42-1.26-1-1.64-1.74-.38-.74-.56-1.6-.56-2.57v-5.31h2.07v5.02Z"/>
        <path class="cls-1" d="M153.4,6.05c.65,0,1.29.14,1.91.41.62.28,1.13.71,1.53,1.3.4.59.6,1.37.6,2.32v6.21h-2.13v-5.79c0-.99-.23-1.7-.69-2.15-.46-.45-1.05-.67-1.78-.67-.48,0-.94.14-1.38.41-.44.27-.8.64-1.08,1.11-.28.47-.42,1.01-.42,1.61v5.49h-2.11V6.34h2.11v1.77c.07-.27.27-.57.59-.9.32-.32.73-.6,1.24-.82.5-.23,1.04-.34,1.62-.34Z"/>
        <path class="cls-1" d="M171.15.29h2.16l5.92,16h-2.22l-1.38-3.85h-6.79l-1.41,3.85h-2.22l5.94-16ZM169.5,10.57h5.47l-2.72-7.73h-.04l-2.72,7.73Z"/>
        <path class="cls-1" d="M182.19,2.93c-.38,0-.7-.14-.98-.41s-.41-.6-.41-.98.14-.71.41-.98c.27-.28.6-.41.98-.41.25,0,.48.06.7.19.21.13.39.3.51.5s.19.44.19.7c0,.38-.14.7-.41.98-.28.27-.61.41-.99.41ZM181.12,16.29V6.34h2.11v9.95h-2.11Z"/>
        <path class="cls-1" d="M188.52,16.29h-2.1V6.34h2.1v1.72h-.06c.04-.21.19-.47.45-.79.26-.31.61-.6,1.07-.85.45-.25.99-.38,1.62-.38.46,0,.87.06,1.22.19.35.13.6.25.75.37l-.86,1.75c-.11-.11-.31-.23-.59-.35-.28-.12-.63-.18-1.05-.18-.53,0-.99.17-1.37.5s-.67.73-.87,1.19c-.2.47-.3.9-.3,1.29v5.48Z"/>
        <path class="cls-1" d="M197.07,21.33h-2.1V6.34h2.13v1.87c.07-.25.27-.55.61-.88.33-.34.78-.64,1.34-.89.56-.25,1.21-.38,1.93-.38.92,0,1.74.22,2.45.66.71.44,1.28,1.05,1.68,1.84.41.79.61,1.71.61,2.77s-.21,1.98-.63,2.77c-.42.79-.99,1.4-1.71,1.84-.72.44-1.55.65-2.48.65-.75,0-1.41-.14-1.97-.42s-1-.6-1.32-.96c-.32-.36-.5-.64-.55-.85v6.98ZM203.65,11.32c0-.72-.15-1.34-.44-1.87-.3-.53-.69-.93-1.17-1.22-.49-.29-1.01-.44-1.58-.44-.62,0-1.19.15-1.7.44-.51.3-.91.71-1.21,1.24-.3.53-.45,1.15-.45,1.85s.15,1.32.45,1.85c.3.53.7.94,1.21,1.23s1.07.44,1.7.44c.57,0,1.09-.14,1.58-.43.48-.29.87-.69,1.17-1.22.29-.52.44-1.15.44-1.87Z"/>
        <path class="cls-1" d="M212.53,16.58c-1.03,0-1.94-.23-2.73-.69-.8-.46-1.42-1.08-1.87-1.87-.45-.79-.68-1.68-.68-2.67s.23-1.89.68-2.69c.45-.8,1.08-1.43,1.87-1.9.8-.47,1.71-.7,2.73-.7s1.92.23,2.71.7c.79.47,1.4,1.1,1.85,1.9.44.8.67,1.7.67,2.69s-.22,1.88-.67,2.67c-.44.79-1.06,1.41-1.85,1.87-.79.46-1.69.69-2.71.69ZM212.53,14.77c.65,0,1.21-.15,1.69-.45.48-.3.85-.71,1.12-1.23.27-.52.4-1.11.4-1.76s-.13-1.24-.4-1.77c-.27-.52-.64-.94-1.12-1.25s-1.04-.46-1.69-.46-1.22.15-1.71.46c-.49.31-.86.72-1.13,1.25-.27.53-.41,1.12-.41,1.77s.14,1.24.41,1.76c.27.52.65.93,1.13,1.23.48.3,1.05.45,1.71.45Z"/>
        <path class="cls-1" d="M222.15,16.29h-2.1V6.34h2.1v1.72h-.06c.04-.21.19-.47.45-.79.26-.31.61-.6,1.07-.85.45-.25.99-.38,1.62-.38.46,0,.87.06,1.22.19.35.13.6.25.75.37l-.86,1.75c-.11-.11-.31-.23-.59-.35-.28-.12-.63-.18-1.05-.18-.53,0-.99.17-1.37.5-.38.33-.67.73-.87,1.19-.2.47-.3.9-.3,1.29v5.48Z"/>
        <path class="cls-1" d="M227.86,6.34h1.95V2.25h2.1v4.08h2.56v1.81h-2.56v4.92c0,.58.1,1.01.31,1.28.21.28.48.41.83.41.31,0,.55-.06.72-.17.17-.11.27-.19.3-.23l.84,1.55s-.18.12-.39.23c-.21.11-.48.21-.81.3-.33.09-.72.13-1.16.13-.78,0-1.42-.24-1.95-.71-.52-.47-.78-1.22-.78-2.25v-5.48h-1.95v-1.81Z"/>
      </g>
      <g>
        <path class="cls-1" d="M90,32.03h-6.18v-5.14h18.19v5.14h-6.16v20.74h-5.86v-20.74Z"/>
        <path class="cls-1" d="M105.06,26.89h10.55c1.5,0,2.84.31,4.02.94,1.18.63,2.11,1.53,2.79,2.72.69,1.18,1.03,2.59,1.03,4.23s-.29,2.97-.87,4.01c-.58,1.04-1.28,1.82-2.09,2.33-.81.52-1.56.83-2.25.93l6.29,10.72h-6.59l-5.61-10.27h-1.41v10.27h-5.86v-25.88ZM110.92,38.44h2.59c1.05,0,1.96-.25,2.74-.76.78-.51,1.18-1.41,1.18-2.71s-.39-2.19-1.16-2.7c-.77-.5-1.68-.75-2.73-.75h-2.63v6.92Z"/>
        <path class="cls-1" d="M134.88,26.89h5.82l10.21,25.88h-6.25l-1.88-5.2h-9.96l-1.9,5.2h-6.27l10.23-25.88ZM134.78,42.44h6.06l-3-8.49h-.06l-3,8.49Z"/>
        <path class="cls-1" d="M158.41,32.26l.43.08v20.43h-5.86v-25.88h8l10.49,20.39-.43.08v-20.47h5.86v25.88h-8.04l-10.45-20.51Z"/>
        <path class="cls-1" d="M190.76,26.42c1.61,0,3.01.18,4.21.53s2.17.73,2.9,1.12c.73.39,1.18.65,1.33.78l-2.82,4.72c-.21-.16-.57-.39-1.07-.69s-1.1-.57-1.78-.8c-.69-.24-1.4-.35-2.15-.35-1.01,0-1.82.18-2.44.54-.62.36-.93.89-.93,1.6,0,.48.17.92.5,1.3.33.39.84.75,1.53,1.1.69.35,1.56.72,2.62,1.13.97.35,1.87.77,2.73,1.26.85.48,1.6,1.06,2.24,1.72s1.16,1.42,1.54,2.28c.38.86.57,1.84.57,2.94,0,1.31-.27,2.44-.8,3.4-.54.96-1.27,1.75-2.19,2.38-.92.63-1.97,1.1-3.14,1.4s-2.38.46-3.64.46c-1.78,0-3.37-.2-4.77-.61-1.41-.41-2.54-.84-3.4-1.31s-1.38-.78-1.55-.94l2.92-4.92c.16.12.46.31.91.57.45.26,1,.53,1.66.81.65.28,1.35.52,2.09.72.74.2,1.47.29,2.19.29,1.2,0,2.1-.23,2.71-.7.6-.46.9-1.07.9-1.83,0-.56-.19-1.07-.57-1.51-.38-.44-.95-.87-1.71-1.27-.76-.4-1.71-.82-2.84-1.26-1.14-.46-2.2-1.01-3.19-1.67-.99-.65-1.79-1.47-2.4-2.45-.61-.98-.92-2.2-.92-3.65s.41-2.71,1.23-3.77c.82-1.07,1.9-1.89,3.24-2.46,1.34-.58,2.77-.86,4.3-.86Z"/>
        <path class="cls-1" d="M203.3,26.89h9.41c1.66,0,3.16.29,4.49.87s2.4,1.46,3.19,2.65c.79,1.18,1.19,2.66,1.19,4.44s-.4,3.26-1.19,4.5c-.79,1.24-1.85,2.18-3.19,2.82-1.33.65-2.83.97-4.49.97h-3.55v9.63h-5.86v-25.88ZM209.16,38.52h1.92c.8,0,1.51-.12,2.15-.35.63-.24,1.14-.61,1.52-1.13.38-.52.57-1.2.57-2.05s-.19-1.55-.57-2.05c-.38-.5-.89-.87-1.52-1.09-.63-.22-1.35-.33-2.15-.33h-1.92v7Z"/>
        <path class="cls-1" d="M224.12,39.81c0-1.88.33-3.64,1-5.26s1.6-3.05,2.8-4.26c1.2-1.22,2.61-2.16,4.23-2.84s3.37-1.02,5.25-1.02,3.67.34,5.28,1.02c1.61.68,3.02,1.63,4.22,2.84s2.12,2.64,2.78,4.26c.66,1.63.99,3.38.99,5.26s-.32,3.66-.96,5.28c-.64,1.63-1.56,3.05-2.75,4.27-1.19,1.22-2.59,2.17-4.21,2.85s-3.41,1.02-5.35,1.02-3.79-.34-5.42-1.02-3.03-1.63-4.21-2.85c-1.18-1.22-2.08-2.65-2.72-4.27-.63-1.63-.95-3.39-.95-5.28ZM230.22,39.81c0,1.48.3,2.81.91,4.01.61,1.2,1.45,2.15,2.53,2.85,1.08.71,2.33,1.06,3.75,1.06s2.68-.35,3.75-1.06,1.92-1.66,2.53-2.85c.61-1.2.91-2.53.91-4.01s-.3-2.81-.91-4c-.61-1.19-1.45-2.14-2.53-2.85-1.08-.71-2.33-1.07-3.75-1.07s-2.68.36-3.75,1.07c-1.08.71-1.92,1.66-2.53,2.85-.61,1.19-.91,2.52-.91,4Z"/>
        <path class="cls-1" d="M253.92,26.89h10.55c1.5,0,2.84.31,4.02.94s2.11,1.53,2.79,2.72c.69,1.18,1.03,2.59,1.03,4.23s-.29,2.97-.87,4.01c-.58,1.04-1.28,1.82-2.09,2.33-.81.52-1.56.83-2.25.93l6.29,10.72h-6.59l-5.61-10.27h-1.41v10.27h-5.86v-25.88ZM259.79,38.44h2.59c1.05,0,1.96-.25,2.74-.76.78-.51,1.18-1.41,1.18-2.71s-.39-2.19-1.16-2.7c-.77-.5-1.68-.75-2.73-.75h-2.63v6.92Z"/>
        <path class="cls-1" d="M281.2,32.03h-6.18v-5.14h18.19v5.14h-6.16v20.74h-5.86v-20.74Z"/>
        <path class="cls-1" d="M301.9,26.89h5.82l10.22,25.88h-6.25l-1.88-5.2h-9.96l-1.9,5.2h-6.27l10.23-25.88ZM301.8,42.44h6.06l-3-8.49h-.06l-3,8.49Z"/>
        <path class="cls-1" d="M322.31,32.03h-6.18v-5.14h18.19v5.14h-6.16v20.74h-5.86v-20.74Z"/>
        <path class="cls-1" d="M337.7,26.89h5.86v25.88h-5.86v-25.88Z"/>
        <path class="cls-1" d="M347.27,39.81c0-1.88.33-3.64,1-5.26.67-1.63,1.6-3.05,2.8-4.26,1.2-1.22,2.61-2.16,4.23-2.84s3.37-1.02,5.25-1.02,3.67.34,5.28,1.02,3.02,1.63,4.22,2.84c1.2,1.22,2.12,2.64,2.78,4.26s.99,3.38.99,5.26-.32,3.66-.96,5.28c-.64,1.63-1.56,3.05-2.75,4.27-1.19,1.22-2.59,2.17-4.21,2.85-1.62.68-3.41,1.02-5.35,1.02s-3.79-.34-5.42-1.02-3.03-1.63-4.21-2.85c-1.18-1.22-2.08-2.65-2.72-4.27-.63-1.63-.95-3.39-.95-5.28ZM353.37,39.81c0,1.48.3,2.81.91,4.01.61,1.2,1.45,2.15,2.53,2.85,1.08.71,2.33,1.06,3.75,1.06s2.68-.35,3.75-1.06c1.08-.71,1.92-1.66,2.53-2.85.61-1.2.91-2.53.91-4.01s-.3-2.81-.91-4c-.61-1.19-1.45-2.14-2.53-2.85-1.08-.71-2.33-1.07-3.75-1.07s-2.68.36-3.75,1.07c-1.08.71-1.92,1.66-2.53,2.85-.61,1.19-.91,2.52-.91,4Z"/>
        <path class="cls-1" d="M382.62,32.26l.43.08v20.43h-5.86v-25.88h8l10.49,20.39-.43.08v-20.47h5.86v25.88h-8.04l-10.45-20.51Z"/>
      </g>
      <g>
        <path class="cls-1" d="M300.23,70.59h-5v-10.48h4.54c.93,0,1.66.23,2.2.68.54.45.81,1.08.81,1.86,0,.54-.12,1-.37,1.39-.25.39-.58.66-1.01.82.7.11,1.25.41,1.66.91.41.5.61,1.13.61,1.89,0,.89-.31,1.6-.93,2.13-.62.53-1.46.79-2.52.79ZM296.34,61.11v3.43h3.25c.67,0,1.18-.14,1.55-.43.36-.29.55-.71.55-1.26s-.18-.99-.55-1.29c-.36-.3-.88-.45-1.55-.45h-3.25ZM296.34,65.51v4.07h3.7c.78,0,1.38-.18,1.81-.54.43-.36.64-.86.64-1.51s-.21-1.13-.64-1.49c-.43-.35-1.03-.53-1.81-.53h-3.7Z"/>
        <path class="cls-1" d="M305.99,73.64c-.52,0-.9-.07-1.15-.21v-1c.31.16.64.24.99.24.44,0,.82-.18,1.14-.55.32-.36.65-.97,1-1.8l-3.22-6.96h1.2l2.56,5.69,2.49-5.69h1.17l-3.58,8.04c-.65,1.5-1.51,2.25-2.59,2.25Z"/>
        <path class="cls-1" d="M322.97,70.77c-1.51,0-2.78-.51-3.82-1.53-1.02-1.02-1.53-2.32-1.53-3.89s.51-2.86,1.53-3.88c1.03-1.03,2.31-1.54,3.85-1.54,1.33,0,2.44.33,3.32,1v1.12c-.97-.73-2.06-1.09-3.26-1.09s-2.26.41-3.08,1.24c-.82.82-1.23,1.87-1.23,3.16s.4,2.32,1.21,3.14c.82.82,1.82,1.23,3.01,1.23,1.26,0,2.25-.36,2.98-1.09v-4.07h1.09v4.51c-.46.52-1.05.93-1.76,1.24-.71.3-1.49.46-2.31.46Z"/>
        <path class="cls-1" d="M330.1,64.3c.73-.75,1.67-1.12,2.81-1.12s2.09.37,2.81,1.12c.73.73,1.09,1.62,1.09,2.68s-.36,1.95-1.09,2.68-1.68,1.11-2.81,1.11-2.08-.37-2.81-1.11-1.09-1.62-1.09-2.68.36-1.95,1.09-2.68ZM335.71,66.98c0-.8-.26-1.47-.79-2.02-.53-.54-1.2-.81-2.01-.81s-1.48.27-2.01.81c-.53.55-.79,1.22-.79,2.02s.26,1.46.79,2.01c.53.54,1.2.81,2.01.81s1.48-.27,2.01-.81c.53-.55.79-1.22.79-2.01Z"/>
        <path class="cls-1" d="M342.81,70.59h-1.11v-9.48h-3.61v-1h8.37v1h-3.65v9.48Z"/>
        <path class="cls-1" d="M347.79,70.59h-1.08v-7.23h1.08v1.38c.27-.47.67-.85,1.2-1.13.53-.28,1.09-.43,1.68-.43v1.09c-.33,0-.63.04-.9.13-.46.12-.86.33-1.21.62s-.6.63-.76,1v4.57Z"/>
        <path class="cls-1" d="M354.38,70.77c-.77,0-1.42-.21-1.96-.63-.53-.44-.79-1.03-.79-1.77s.28-1.31.84-1.75c.56-.43,1.27-.64,2.13-.64.94,0,1.81.23,2.61.7v-.72c0-1.21-.79-1.81-2.38-1.81-.85,0-1.64.24-2.37.73v-1.05c.71-.44,1.57-.66,2.59-.66s1.77.23,2.36.7c.58.46.88,1.13.88,1.98v2.98c0,.28.06.5.19.66.12.16.29.24.5.24.16,0,.3-.03.42-.09v.84c-.16.11-.4.16-.72.16-.36,0-.66-.1-.91-.29-.24-.19-.4-.48-.46-.86-.73.85-1.7,1.27-2.92,1.27ZM354.68,69.8c.5,0,.97-.11,1.42-.34s.81-.52,1.09-.87v-1c-.74-.48-1.52-.72-2.35-.72-.66,0-1.18.13-1.56.39-.38.26-.58.61-.58,1.06s.18.83.55,1.09c.37.26.84.39,1.42.39Z"/>
        <path class="cls-1" d="M362.21,65.71v4.88h-1.08v-7.23h1.08v1.11c.77-.86,1.73-1.29,2.89-1.29.89,0,1.57.26,2.04.79.47.52.71,1.27.71,2.22v4.4h-1.08v-4.16c0-1.49-.68-2.23-2.05-2.23-.5,0-.98.15-1.45.46-.48.31-.83.66-1.06,1.05Z"/>
        <path class="cls-1" d="M372.72,70.77c-.58,0-1.15-.07-1.7-.22-.55-.14-.99-.32-1.3-.53v-1.11c.88.59,1.87.88,2.96.88.62,0,1.11-.1,1.46-.31s.53-.49.53-.85c0-.31-.17-.56-.51-.76-.1-.08-.35-.17-.76-.27-.12-.04-.28-.08-.49-.12-.27-.07-.43-.11-.49-.12-.91-.23-1.56-.5-1.95-.82s-.58-.77-.58-1.37c0-.63.25-1.12.76-1.47s1.22-.53,2.14-.53c1.09,0,1.97.21,2.63.64v1.06c-.82-.49-1.68-.73-2.59-.73-.61,0-1.07.09-1.38.28-.31.19-.47.45-.47.78,0,.36.18.63.55.81.07.02.16.05.26.1.1.05.21.08.32.11l.33.09c.24.08.48.13.72.16.9.22,1.56.49,1.98.81.42.32.64.77.64,1.36,0,.66-.29,1.17-.87,1.54-.58.38-1.31.57-2.2.57Z"/>
        <path class="cls-1" d="M379.53,64.3v6.29h-1.08v-6.29h-1.44v-.94h1.44v-1.21c0-.67.18-1.2.54-1.58.36-.38.87-.58,1.53-.58.61,0,1.12.1,1.53.28v.99c-.48-.2-.9-.3-1.26-.3-.84,0-1.26.46-1.26,1.39v1h2.52v.94h-2.52Z"/>
        <path class="cls-1" d="M386.95,70.77c-1.13,0-2.08-.35-2.84-1.06-.76-.7-1.14-1.61-1.14-2.73s.34-1.98,1.02-2.71c.69-.73,1.57-1.09,2.65-1.09.58,0,1.09.12,1.54.35s.8.54,1.06.92c.26.38.45.78.58,1.21s.19.85.19,1.28v.3h-5.94c.06.78.37,1.4.94,1.86.56.46,1.28.7,2.15.7s1.61-.22,2.32-.67v.96c-.59.46-1.43.69-2.53.69ZM384.09,66.35h4.84c-.03-.56-.24-1.06-.63-1.51-.37-.46-.94-.69-1.71-.69-.72,0-1.31.22-1.77.66-.45.45-.69.96-.73,1.54Z"/>
        <path class="cls-1" d="M393.11,70.59h-1.08v-7.23h1.08v1.38c.27-.47.67-.85,1.2-1.13.53-.28,1.09-.43,1.68-.43v1.09c-.33,0-.63.04-.9.13-.46.12-.86.33-1.21.62-.35.29-.6.63-.76,1v4.57Z"/>
        <path class="cls-1" d="M400.02,70.77c-.58,0-1.15-.07-1.7-.22-.55-.14-.99-.32-1.3-.53v-1.11c.88.59,1.87.88,2.96.88.62,0,1.11-.1,1.46-.31s.53-.49.53-.85c0-.31-.17-.56-.51-.76-.1-.08-.35-.17-.76-.27-.12-.04-.28-.08-.49-.12-.27-.07-.43-.11-.49-.12-.91-.23-1.56-.5-1.95-.82s-.58-.77-.58-1.37c0-.63.25-1.12.76-1.47s1.22-.53,2.14-.53c1.09,0,1.97.21,2.63.64v1.06c-.82-.49-1.68-.73-2.59-.73-.61,0-1.07.09-1.38.28-.31.19-.47.45-.47.78,0,.36.18.63.55.81.07.02.16.05.26.1.1.05.21.08.32.11l.33.09c.24.08.48.13.72.16.9.22,1.56.49,1.98.81.42.32.64.77.64,1.36,0,.66-.29,1.17-.87,1.54-.58.38-1.31.57-2.2.57Z"/>
      </g>
      <path class="cls-2" d="M18.53,44.83L2.41,60.95C1.52,61.84,0,61.21,0,59.96V7.05C0,3.15,3.15,0,7.05,0h52.91c1.26,0,1.88,1.52,1,2.41l-16.97,16.99h-.01c-.56.17-1.14.01-1.73-.13,0,0-24.49-5.96-27.37-6.62-.61-.14-1.25-.23-1.87-.23-.66,0-1.25.3-1.49.99-.23.66.21,1.09.66,1.45.78.61,14.84,9.3,21.24,12.82.77.42,1.23.68,1.35.93l-11.2,11.2c-1.37.54-2.9.63-4.69.21-.78-.19-1.62-.14-2.45-.22-.67-.06-1.34.07-1.92.4-.82.47-1.68,1.09-1.68,2.05s1.13,1.03,1.83,1.27c1.3.47,2.59.89,3.9,1.31Z"/>
      <path class="cls-2" d="M70.59,10.63v52.91c0,3.89-3.15,7.05-7.05,7.05H10.63c-1.26,0-1.88-1.52-1-2.41l16.14-16.14c.44,1.34.9,2.65,1.37,3.96.25.72.24,1.86,1.23,1.87,1.07.01,1.61-.96,2.1-1.83.34-.63.31-1.34.28-2.02-.1-1.79-.27-3.57-.35-5.34-.03-.49.03-.97.16-1.42l11.32-11.32c.32.07,13.6,22.2,14.13,22.7.94.85,1.68.47,2.16-.58.3-.66.06-1.37-.08-2.03-.8-3.35-6.68-27.66-6.76-28.07-.1-.52-.13-1.03.07-1.54l16.8-16.8c.89-.89,2.41-.26,2.41,1Z"/>
    </g>
  </g>
</svg>